<?xml version="1.0" encoding="UTF-8" standalone="no"?>
<svg
   viewBox="0 0 2116.6666 2116.6666"
   version="1.1"
   xmlns="http://www.w3.org/2000/svg"
   xmlns:svg="http://www.w3.org/2000/svg">
  <path
     style="fill:#ffffff"
     d="m 154,1369 q 13,14 38,31 4,2 10,5.5 6,3.5 24.5,19 18.5,15.5 36,35.5 17.5,20 39.5,56.5 22,36.5 39,80.5 l 3,9 q 0,0 11,23 11,23 20.5,33 9.5,10 32,37 22.5,27 44.5,37.5 22,10.5 59.5,31 37.5,20.5 76.5,20.5 30,5 69,5 h 25 q 54,-2 114,-15 2,226 2,230 165,40 335,40 162,0 333,-41 0,-5 1,-134 1,-129 1,-236 0,-169 -92,-249 70,-8 129,-20 59,-12 124,-36 65,-24 116,-57 51,-33 98.5,-84 47.5,-51 79,-116 31.5,-65 50.5,-155 19,-90 19,-198 0,-211 -138,-362 8,-19 14.5,-45.5 6.5,-26.5 11.5,-74.5 2,-16 2,-34 0,-35 -6,-76 -10,-62 -36,-127 -5,-1 -14,-3 h -9 q -11,0 -33,2 -33,3 -72,14.5 Q 1673,28 1607.5,60 1542,92 1470,141 1308,96 1132,96 950,98 794,141 585,0 456,0 h -5 l -27,3 q -25,65 -35,127 -6,41 -6,75 0,18 1,35 6,47 12,74 6,27 14,46 -139,152 -139,362 0,108 18.5,198 18.5,90 50.5,154.5 32,64.5 79.5,116 47.5,51.5 98.5,84.5 51,33 115.5,57 64.5,24 123.5,36.5 59,12.5 129,20.5 -70,61 -86,180 -29,13 -59.5,22 -30.5,9 -76.5,13 h -23 q -34,0 -65,-8 -42,-10 -88,-45 -46,-35 -80,-94 -3,-5 -8.5,-14 -5.5,-9 -25.5,-31.5 -20,-22.5 -42,-40.5 -22,-18 -57.5,-34 -35.5,-16 -73.5,-19 h -7.5 q 0,0 -15.5,1.5 -15.5,1.5 -19,4 -3.5,2.5 -14,8.5 -5,6 -5,12 0,9 14,25 z" />
</svg>
