<?xml version="1.0" encoding="UTF-8" standalone="no"?>
<svg
   viewBox="0 0 2116.6666 2116.6666"
   version="1.1"
   xmlns="http://www.w3.org/2000/svg"
   xmlns:svg="http://www.w3.org/2000/svg">
  <path
     style="fill:#FFFFFF"
     d="m 39.819791,287.81979 q 0,-101 72.999999,-176 74,-71.999999 175,-71.999999 102,0 175,71.999999 73,75 73,176 0,100 -73,175 -73,73 -175,73 -102,0 -175,-73 -72.999999,-75 -72.999999,-175 z m 13,1736.00001 V 734.81979 q 0,-21 16,-37 15,-15 35.999999,-15 h 366 q 21,0 36,15 16,16 16,37 V 2023.8198 q 0,20 -16,36 -16,16 -36,16 h -366 q -19.999999,0 -35.999999,-16 -16,-16 -16,-36 z m 668.999999,0 V 734.81979 q 0,-22 15,-37 15,-15 37,-15 h 355.00001 q 20,0 31,7 10,6 15,28 2,16 5,26 v 11 q 1,12 1,23 138,-129 365,-129 255,0 398,127 144,128 144,377.00001 v 871 q 0,20 -16,36 -16,16 -36,16 h -374 q -21,0 -37,-16 -15,-15 -15,-36 v -786 q 0,-103 -40,-154 -39,-49 -141,-49 -132,0 -184,76 -53,77 -53,213 v 700 q 0,21 -15,36 -16,16 -38,16 H 773.81979 q -21,0 -37,-16 -15,-15 -15,-36 z"
     id="path1" />
</svg>
