<?xml version="1.0" encoding="UTF-8" standalone="no"?>
<!DOCTYPE svg PUBLIC "-//W3C//DTD SVG 20010904//EN"
"http://www.w3.org/TR/2001/REC-SVG-20010904/DTD/svg10.dtd">
<!-- Created with Inkscape (http://www.inkscape.org/) -->
<svg
   version="1.0"
   x="0"
   y="0"
   width="270mm"
   height="184mm"
   preserveAspectRatio="xMidYMid meet"
   viewBox="0 0 1600 1200"
   id="debian_dvd_cover"
   sodipodi:version="0.32"
   inkscape:version="0.37"
   sodipodi:docname="Debian DVD cover.svg"
   sodipodi:docbase="/mnt/storage1/development/graphics/svg"
   xmlns="http://www.w3.org/2000/svg"
   xmlns:inkscape="http://www.inkscape.org/namespaces/inkscape"
   xmlns:sodipodi="http://sodipodi.sourceforge.net/DTD/sodipodi-0.dtd"
   xmlns:xml="http://www.w3.org/XML/1998/namespace"
   xmlns:xlink="http://www.w3.org/1999/xlink">
  <sodipodi:namedview
     id="base"
     pagecolor="#ffffff"
     bordercolor="#666666"
     borderopacity="1.0"
     inkscape:pageshadow="2"
     snaptoguides="true"
     showgrid="true"
     snaptogrid="false"
     vertgrid="true"
     horizgrid="true"
     guidetolerance="5mm"
     borderlayer="top"
     gridspacingx="1mm"
     gridspacingy="1mm"
     inkscape:zoom="1.56136838"
     inkscape:cx="382.677149"
     inkscape:cy="260.787387"
     inkscape:window-width="1272"
     inkscape:window-height="956"
     inkscape:window-x="51"
     inkscape:window-y="50" />
  <defs
     id="defs577">
    <linearGradient
       id="Gradient"
       gradientUnits="userSpaceOnUse"
       x1="0"
       y1="0"
       x2="800"
       y2="0">
      <stop
         offset="0"
         stop-color="white"
         stop-opacity="0"
         id="stop626" />
      <stop
         offset="1"
         stop-color="white"
         stop-opacity="1"
         id="stop627" />
    </linearGradient>
    <filter
       id="Multiply">
      <feBlend
         mode="multiply"
         in2="background_swril"
         in="SourceGraphic" />
    </filter>
    <linearGradient
       id="linearGradient783">
      <stop
         style="stop-color:#f3f3f3;stop-opacity:1;"
         offset="0.00000000"
         id="stop784" />
      <stop
         style="stop-color:#dedede;stop-opacity:1;"
         offset="1.00000000"
         id="stop785" />
    </linearGradient>
    <linearGradient
       id="linearGradient672" />
    <linearGradient
       id="linearGradient669">
      <stop
         style="stop-color:#fafafa;stop-opacity:1;"
         offset="0.00000000"
         id="stop670" />
      <stop
         style="stop-color:#f1f1f1;stop-opacity:1;"
         offset="1.00000000"
         id="stop671" />
    </linearGradient>
    <linearGradient
       id="linearGradient591">
      <stop
         style="stop-color:#000000;stop-opacity:1;"
         offset="0.00000000"
         id="stop592" />
      <stop
         style="stop-color:#211a1a;stop-opacity:1;"
         offset="1.00000000"
         id="stop593" />
    </linearGradient>
    <linearGradient
       id="backSwirlBackground"
       x1="0.85"
       y1="0.7"
       x2="0.1"
       y2="0.2">
      <stop
         style="stop-color:#472464;stop-opacity:1;"
         offset="0"
         id="stop760" />
      <stop
         style="stop-color:#2b1d49;stop-opacity:1;"
         offset="1"
         id="stop761" />
    </linearGradient>
    <linearGradient
       id="frontSwirlBackground"
       x1="0"
       y1="0"
       x2="0.9"
       y2="0.75">
      <stop
         style="stop-color:#472464;stop-opacity:1;"
         offset="0"
         id="stop763" />
      <stop
         style="stop-color:#2b1d49;stop-opacity:1;"
         offset="1"
         id="stop764" />
    </linearGradient>
    <linearGradient
       id="yellowGradientDirection"
       x1="0"
       y1="0"
       x2="1"
       y2="0">
      <stop
         style="stop-color:#ffce00;stop-opacity:1;"
         offset="0"
         id="stop766" />
      <stop
         style="stop-color:#fdff8a;stop-opacity:1;"
         offset="1"
         id="stop767" />
    </linearGradient>
    <linearGradient
       xlink:href="#linearGradient669"
       id="linearGradient685"
       x1="0.62234044"
       y1="0.60937494"
       x2="0.15425532"
       y2="0.13281249" />
    <linearGradient
       xlink:href="#linearGradient783"
       id="linearGradient782"
       x1="0.82758617"
       y1="0.39999998"
       x2="0.32758620"
       y2="-0.99999994" />
  <mask id="Mask" maskUnits="userSpaceOnUse"
          x="40" y="250" width="600" height="640">
  <path
     id="swirl2"
     d="M 533.75553 362.11243 C 528.88443 323.35009 443.03813 331.8301 443.03813 331.8301 C 443.03813 331.8301 468.12303 334.81514 481.39253 338.49125 C 379.71393 379.67234 398.58883 440.23701 398.58883 440.23701 C 398.58883 440.23701 390.67513 439.63232 380.32343 431.757 C 482.00203 600.12388 583.68063 500.19219 589.77063 494.74521 C 706.67193 322.14071 575.76683 229.47966 569.06733 225.84674 C 414.42103 161.64915 312.13303 251.88666 312.13303 251.88666 C 312.13303 251.88666 311.52353 242.19728 315.78513 228.26548 C 186.09898 396.63237 262.81742 575.29328 262.81742 575.29328 C 262.81742 575.29328 268.90269 563.18038 273.16429 557.72858 C 393.71773 730.93778 517.92813 695.80838 517.92813 695.80838 C 518.69113 696.86418 479.56893 697.02258 468.60773 686.11898 C 468.60773 686.11898 515.49013 673.40138 541.05973 650.99438 C 306.04293 752.74018 262.81742 436.60409 262.81742 429.94294 C 269.51217 434.78523 278.64486 442.66055 278.64486 442.66055 C 278.64486 442.66055 246.98519 289.43483 461.91303 235.53612 C 461.91303 235.53612 444.25233 254.91489 443.64763 263.99959 C 443.64763 263.99959 620.82083 210.10088 612.90713 382.09589 C 612.90713 382.09589 616.29053 531.53032 494.34053 506.40702 C 357.23493 474.82413 406.50733 328.19718 533.75553 362.11243 z "
     style="fill:none;stroke:#ffffff;stroke-width:2mm;" />
    </mask>
<g id="test">
    <rect
       style="fill:#fbfbfb;fill-opacity:0.95;stroke:#777777;stroke-width:1mm;"
       id="backTextArea"
       width="600"
       height="300"
       x="40"
       y="250" />
    <rect
       style="fill:#fbfbfb;fill-opacity:0.95;stroke:#777777;stroke-width:1mm;"
       id="backTextArea2"
       width="600"
       height="300"
       x="40"
       y="590" />
</g>
  </defs>
  <rect
     style="fill:url(#linearGradient685);fill-opacity:1;"
     id="background"
     x="-80.43473816"
     y="0.00010459"
     width="1760.86954117"
     height="1199.99987793" />
  <ellipse
     id="ellipse1"
     cx="1014"
     cy="1072"
     rx="681"
     ry="400"
     style="font-size:12;fill:url(#backSwirlBackground);"
     transform="matrix(1.388623,0.000000,0.000000,1.467391,-151.5418,-503.4783)"
     sodipodi:insensitive="true" />
  <ellipse
     id="ellipse2"
     cx="1038"
     cy="1072"
     rx="597"
     ry="202"
     style="font-size:12;fill:url(#frontSwirlBackground);"
     transform="matrix(1.529386,0.000000,0.000000,2.340000,-330.9811,-1488.603)" />
  <ellipse
     id="ellipse3"
     cx="219"
     cy="1017"
     rx="625"
     ry="288"
     style="font-size:12;fill:#8f689f;fill-opacity:0.483871;fill-rule:evenodd;"
     transform="matrix(0.983280,0.200410,-0.165465,0.983280,20.37645,81.73125)" />
  <path
     id="Swirl"
     d="M 1251.3651 824.80115 C 1246.494 786.03881 1160.6477 794.51882 1160.6477 794.51882 C 1160.6477 794.51882 1185.7326 797.50386 1199.0021 801.17997 C 1097.3235 842.36106 1116.1984 902.92573 1116.1984 902.92573 C 1116.1984 902.92573 1108.2847 902.32104 1097.933 894.44572 C 1199.6116 1062.8126 1301.2902 962.88091 1307.3802 957.43393 C 1424.2815 784.82943 1293.3764 692.16838 1286.6769 688.53546 C 1132.0306 624.33787 1029.7426 714.57538 1029.7426 714.57538 C 1029.7426 714.57538 1029.1331 704.886 1033.3947 690.9542 C 903.70855 859.32109 980.42699 1037.982 980.42699 1037.982 C 980.42699 1037.982 986.51226 1025.8691 990.77386 1020.4173 C 1111.3273 1193.6265 1235.5377 1158.4971 1235.5377 1158.4971 C 1236.3007 1159.5529 1197.1785 1159.7113 1186.2173 1148.8077 C 1186.2173 1148.8077 1233.0997 1136.0901 1258.6693 1113.6831 C 1023.6525 1215.4289 980.42699 899.29281 980.42699 892.63166 C 987.12174 897.47395 996.25443 905.34927 996.25443 905.34927 C 996.25443 905.34927 964.59476 752.12355 1179.5226 698.22484 C 1179.5226 698.22484 1161.8619 717.60361 1161.2572 726.68831 C 1161.2572 726.68831 1338.4304 672.7896 1330.5167 844.78461 C 1330.5167 844.78461 1333.9001 994.21904 1211.9501 969.09574 C 1074.8445 937.51285 1124.1169 790.8859 1251.3651 824.80115 z "
     style="fill:#a7053f;filter:url(filters.svg#glowShadowFilter);" />
  <rect
     style="fill:#ffffff;fill-rule:evenodd;stroke-width:1;fill-opacity:0.6;"
     id="coverBackLightenUp"
     width="841.30432129"
     height="1200"
     x="-80.43474579"
     y="0" />
  <text
     xml:space="preserve"
     style="fill:#ffffff;fill-opacity:1;stroke:none;font-family:Bitstream Vera Sans;font-style:normal;font-weight:normal;font-size:18;text-anchor:start;writing-mode:lr;"
     x="1447.69553"
     y="1173.54163"
     id="text863"
     sodipodi:linespacing="100%"><tspan
       x="1447.69556"
       y="1173.54163"
       sodipodi:role="line"
       id="tspan868">Version 3.1</tspan></text>
  <path
     style="font-size:12;fill:url(#linearGradient782);fill-opacity:0.75;fill-rule:evenodd;stroke:#d9d9d9;stroke-width:1.30742;"
     d="M 839.74549 8.1015952 L 1668.2095 10.648412 L 1668.2095 189.13044 C 1516.5729 174.58781 1516.6857 93.728122 1385.6357 61.119427 C 1189.0605 10.33245 929.01221 24.875074 896.24968 24.875074 C 866.45653 24.131456 853.7098 28.23538 839.74549 8.1015952 z "
     id="path781"
     sodipodi:nodetypes="cccccc" />
  <text
     style="fill:none;stroke:#000000;filter:url(filters.svg#dropShadow);font-family:Bitstream Vera Sans;font-style:normal;font-weight:normal;font-size:72;stroke-opacity:1;stroke-width:3;stroke-linejoin:round;stroke-linecap:butt;text-anchor:start;writing-mode:lr;stroke-dasharray:none;"
     x="1000"
     y="130"
     id="debian_sarge">Debian Sarge</text>
  <text
     xml:space="preserve"
     style="fill:black;fill-opacity:1;stroke:none;font-family:Bitstream Vera Sans;font-style:normal;font-weight:normal;font-size:20;stroke-opacity:1;stroke-width:1pt;stroke-linejoin:miter;stroke-linecap:butt;text-anchor:start;writing-mode:lr;"
     x="1270"
     y="150"
     id="text860">GNU/Linux</text>
  <g
     id="Sarge">
    <path
       style="fill-opacity:0.677419;fill-rule:evenodd;stroke:#fffff1;stroke-width:6.2167;stroke-linejoin:round;stroke-opacity:1;"
       d="M 163.66466 401.65957 L 163.66466 293.09926 C 163.63759 292.98273 237.34446 255.66721 291.89986 195.39498 C 345.85116 255.66721 419.06956 292.03177 419.95434 292.74265 L 420.6024 402.01618 C 419.5016 401.06756 345.85116 364.22753 291.89986 303.95529 C 237.34446 364.22753 164.39961 401.08237 163.66466 401.65957 z "
       id="path579"
       sodipodi:nodetypes="ccccccc"
       transform="matrix(0.643122,0.000000,0.000000,0.643122,1175.592,580.7815)" />
    <path
       style="fill:url(#yellowGradientDirection);"
       d="M 169.3165 297.02198 L 169.64054 324.79642 C 169.94657 324.25195 247.2087 277.37928 292.22389 235.41071 C 335.98692 277.37928 413.92248 322.06902 414.62652 322.65675 L 414.30249 295.95215 C 413.59845 295.80755 335.98692 255.66721 291.89986 205.49661 C 247.2087 255.66721 169.65554 296.58506 169.3165 297.02198 z "
       id="path582"
       sodipodi:nodetypes="ccccccc"
       transform="matrix(0.643122,0.000000,0.000000,0.643122,1175.592,580.7815)" />
    <path
       style="fill:url(#yellowGradientDirection);"
       d="M 845.17016 385.9629 L 844.78083 403.92218 C 845.0537 403.71405 885.74451 381.8606 919.10254 350.12632 C 950.92969 381.8606 991.73017 402.16626 992.32478 402.73663 L 992.3962 384.72652 C 991.85054 384.38348 945.00377 355.77365 918.90788 332.7982 C 891.67043 355.77365 845.52366 385.81367 845.17016 385.9629 z "
       id="path584"
       sodipodi:nodetypes="ccccccc"
       transform="matrix(1.070535,0.000000,0.000000,1.070535,380.0132,378.3020)" />
    <path
       style="fill:url(#yellowGradientDirection);"
       d="M 169.80475 360.63368 L 169.48071 388.7455 C 170.29827 388.17893 237.34446 353.3715 292.22389 296.26757 C 345.85116 353.3715 413.47734 386.65482 414.3025 387.59405 L 413.97847 359.10638 C 413.24822 358.59936 345.85116 320.8034 292.87195 271.34601 C 237.34446 320.8034 170.50119 360.37405 169.80475 360.63368 z "
       id="path585"
       sodipodi:nodetypes="ccccccc"
       transform="matrix(0.643122,0.000000,0.000000,0.643122,1175.592,580.7815)" />
  </g>


  <use xlink:href="#test" fill="#fefefe" stroke="black" style="filter:url(filters.svg#dropShadow);" />
  <use xlink:href="#test" mask="url(#Mask)" />

</svg>
