<?xml version="1.0" encoding="UTF-8" standalone="no"?>
<!-- Created with Inkscape (http://www.inkscape.org/) -->
<svg
   xmlns:dc="http://purl.org/dc/elements/1.1/"
   xmlns:cc="http://web.resource.org/cc/"
   xmlns:rdf="http://www.w3.org/1999/02/22-rdf-syntax-ns#"
   xmlns:svg="http://www.w3.org/2000/svg"
   xmlns="http://www.w3.org/2000/svg"
   xmlns:xlink="http://www.w3.org/1999/xlink"
   xmlns:sodipodi="http://sodipodi.sourceforge.net/DTD/sodipodi-0.dtd"
   xmlns:inkscape="http://www.inkscape.org/namespaces/inkscape"
   id="svg1"
   sodipodi:version="0.32"
   inkscape:version="0.43+0.44pre0"
   width="1600.0000pt"
   height="1200.0000pt"
   sodipodi:docbase="/home/je/Graphics/svg"
   sodipodi:docname="Debian wallpaper - Natures gift.svg">
  <defs
     id="defs3">
    <linearGradient
       id="linearGradient4252"
       x1="0"
       y1="0"
       x2="0.9"
       y2="0.75">
      <stop
         style="stop-color:#000000;stop-opacity:0.70980394;"
         offset="0.0000000"
         id="stop4253" />
      <stop
         style="stop-color:#000000;stop-opacity:0.61960787;"
         offset="0.50000000"
         id="stop5503" />
      <stop
         style="stop-color:#000000;stop-opacity:0.0000000;"
         offset="1.0000000"
         id="stop4254" />
    </linearGradient>
    <linearGradient
       id="linearGradient895"
       x1="0"
       y1="0"
       x2="0.9"
       y2="0.75">
      <stop
         style="stop-color:#876133;stop-opacity:1.0000000;"
         offset="0.0000000"
         id="stop896" />
      <stop
         style="stop-color:#543219;stop-opacity:1.0000000;"
         offset="1.0000000"
         id="stop897" />
    </linearGradient>
    <linearGradient
       id="linearGradient887"
       x1="0"
       y1="0"
       x2="0.9"
       y2="0.75">
      <stop
         style="stop-color:#b56d19;stop-opacity:1.0000000;"
         offset="0.0000000"
         id="stop888" />
      <stop
         style="stop-color:#633412;stop-opacity:1.0000000;"
         offset="1.0000000"
         id="stop889" />
    </linearGradient>
    <linearGradient
       id="linearGradient1155"
       x1="0"
       y1="0"
       x2="0.9"
       y2="0.75">
      <stop
         style="stop-color:#7843e9;stop-opacity:1.0000000;"
         offset="0.0000000"
         id="stop1156" />
      <stop
         style="stop-color:#bddcff;stop-opacity:1.0000000;"
         offset="1.0000000"
         id="stop1157" />
    </linearGradient>
    <linearGradient
       id="linearGradient1098"
       x1="0"
       y1="0"
       x2="0.9"
       y2="0.75">
      <stop
         style="stop-color:#4c7845;stop-opacity:1.0000000;"
         offset="0.0000000"
         id="stop1099" />
      <stop
         style="stop-color:#6cab62;stop-opacity:1.0000000;"
         offset="1.0000000"
         id="stop1100" />
    </linearGradient>
    <linearGradient
       id="linearGradient1094"
       x1="0"
       y1="0"
       x2="0.9"
       y2="0.75">
      <stop
         style="stop-color:#ffffff;stop-opacity:0.60156250;"
         offset="0.0000000"
         id="stop1095" />
      <stop
         style="stop-color:#ffffff;stop-opacity:0.0000000;"
         offset="1.0000000"
         id="stop1096" />
    </linearGradient>
    <linearGradient
       id="linearGradient1039"
       x1="0"
       y1="0"
       x2="0.9"
       y2="0.75">
      <stop
         style="stop-color:#0b2404;stop-opacity:1.0000000;"
         offset="0.0000000"
         id="stop1040" />
      <stop
         style="stop-color:#224b21;stop-opacity:1.0000000;"
         offset="1.0000000"
         id="stop1041" />
    </linearGradient>
    <linearGradient
       id="linearGradient910"
       x1="0"
       y1="0"
       x2="0.9"
       y2="0.75">
      <stop
         style="stop-color:#60a95f;stop-opacity:1.0000000;"
         offset="0.0000000"
         id="stop911" />
      <stop
         style="stop-color:#0e260d;stop-opacity:1.0000000;"
         offset="1.0000000"
         id="stop912" />
    </linearGradient>
    <linearGradient
       xlink:href="#linearGradient1094"
       id="linearGradient909"
       x1="0.75213677"
       y1="0.72857141"
       x2="0.26495728"
       y2="0.30000001" />
    <radialGradient
       xlink:href="#linearGradient910"
       id="radialGradient913"
       r="0.75998580"
       fy="0.22535212"
       fx="0.089473687"
       cy="0.23239437"
       cx="0.089473687" />
    <radialGradient
       xlink:href="#linearGradient1155"
       id="radialGradient854"
       cx="0.39759046"
       cy="0.63571382"
       r="0.59075052"
       fx="0.39759046"
       fy="0.63571382" />
    <linearGradient
       xlink:href="#linearGradient1039"
       id="linearGradient1090"
       x1="0.48464164"
       y1="0.47857141"
       x2="0.37201366"
       y2="0.86428571"
       spreadMethod="reflect" />
    <linearGradient
       xlink:href="#linearGradient1094"
       id="linearGradient1093"
       x1="0.63188404"
       y1="-0.090163931"
       x2="0.25507247"
       y2="0.61475408" />
    <linearGradient
       xlink:href="#linearGradient1098"
       id="linearGradient1097"
       x1="0.11111111"
       y1="0.32142857"
       x2="0.71043772"
       y2="0.52857143" />
    <linearGradient
       xlink:href="#linearGradient887"
       id="linearGradient1164"
       x1="0.24817519"
       y1="0.25714287"
       x2="0.64233577"
       y2="0.66428572" />
    <linearGradient
       xlink:href="#linearGradient895"
       id="linearGradient894"
       x1="0.22137405"
       y1="0.18571429"
       x2="0.63358784"
       y2="0.62857145" />
    <linearGradient
       xlink:href="#linearGradient1094"
       id="linearGradient899"
       x1="0.085470088"
       y1="0.12857144"
       x2="0.41880342"
       y2="0.50000000" />
    <radialGradient
       inkscape:collect="always"
       xlink:href="#linearGradient4252"
       id="radialGradient4251"
       cx="0.48829430"
       cy="0.40718561"
       r="0.46883965"
       fx="0.39966556"
       fy="0.43712577" />
  </defs>
  <sodipodi:namedview
     id="base"
     pagecolor="#ffffff"
     bordercolor="#666666"
     borderopacity="1.0"
     inkscape:pageopacity="0.0"
     inkscape:pageshadow="2"
     inkscape:zoom="0.34066667"
     inkscape:cx="1000"
     inkscape:cy="750"
     inkscape:window-width="1014"
     inkscape:window-height="689"
     inkscape:window-x="0"
     inkscape:window-y="25"
     inkscape:current-layer="svg1" />
  <rect
     style="fill:#ffffff;fill-opacity:1.0000000;fill-rule:evenodd;stroke:none;stroke-width:23.464017pt;"
     id="rect854"
     width="2000.0000"
     height="1500.0001"
     x="1.9073486e-06"
     y="-0.00012207031" />
  <rect
     style="fill:url(#radialGradient913);fill-rule:evenodd;stroke:none;stroke-width:1.9541733pt;"
     id="background"
     width="2000.0000"
     height="1500.0000"
     x="0.0000000"
     y="-3.4772185e-13" />
  <use
     x="0.0000000"
     y="0.0000000"
     xlink:href="#leaf"
     id="big leaf clone"
     transform="matrix(2.725207,-4.848366,4.848366,2.725207,-4599.914,-209.8351)"
     width="2000.0000"
     height="1500.0000"
     style="opacity:0.40000000;" />
  <g
     id="g1038"
     transform="matrix(0.000000,-1.502862,1.502862,0.000000,1634.359,1383.195)"
     style="fill:#dddddd;fill-opacity:0.098484851;">
    <defs
       id="defs1039"
       style="fill:#dddddd;fill-opacity:0.098484851;" />
    <g
       id="Layer_1"
       style="fill:#dddddd;fill-opacity:0.098484851;">
      <path
         class="st1"
         d="M72.323,95.531c-0.386,0.389-0.386,40.221-0.775,50.666c-0.772,8.507-1.546,26.686-19.336,26.686    c-18.564,0-22.82-21.271-24.366-30.17c-1.547-10.444-1.547-18.952-1.547-22.431c0-11.987,0.386-45.252,28.621-45.252    c8.507,0,13.148,2.323,17.017,4.257L72.323,95.531z M0,124.924c0,70.002,37.128,70.002,42.929,70.002    c15.47,0,25.139-8.123,29.394-22.821l0.773,22.047c4.641-0.388,9.283-0.776,17.017-0.776c2.708,0,5.028,0,6.962,0.388    c1.933,0,3.868,0,6.188,0.388c-3.868-8.122-6.962-25.914-6.962-64.587c0-37.902,0-102.103,3.095-121.443    c-8.896,4.255-16.631,6.962-33.649,8.51c6.962,7.349,6.962,10.83,6.962,43.704c-4.642-1.549-10.83-3.096-20.885-3.096    C7.347,57.24,0,95.92,0,124.924z"
         id="path1041"
         style="fill:#dddddd;fill-opacity:0.098484851;" />
      <path
         class="st1"
         d="M134.977,112.16c0.386-20.498,4.642-39.064,22.045-39.064c19.338,0,20.885,21.274,20.499,39.064H134.977z     M202.273,114.867c0-29.392-5.801-58.015-42.545-58.015c-51.051,0-51.051,56.469-51.051,68.457    c0,50.278,22.818,70.39,60.721,70.39c17.017,0,25.139-2.704,29.779-3.869c-0.385-8.894,1.161-14.698,2.321-22.428    c-5.026,3.481-11.603,7.73-26.685,7.73c-38.675,0-39.451-35.58-39.451-47.567h66.136L202.273,114.867z"
         id="path1042"
         style="fill:#dddddd;fill-opacity:0.098484851;" />
      <path
         class="st1"
         d="M283.104,125.309c0,23.205-4.254,54.536-32.874,54.536c-4.254,0-9.281-0.778-12.375-1.547    c-0.386-8.896-0.386-24.369-0.386-42.545c0-21.273,1.932-32.487,3.867-37.902c5.414-17.794,17.017-17.794,19.338-17.794    C279.236,80.057,283.104,105.973,283.104,125.309z M211.555,152.381c0,18.567,0,29.008-2.707,37.129    c10.056,3.866,22.818,6.188,37.902,6.188c9.668,0,37.9,0,52.986-31.327c7.35-14.31,9.668-33.649,9.668-48.344    c0-8.898-0.772-28.623-8.121-40.998c-6.961-11.987-18.179-17.79-30.167-17.79c-23.978,0-30.94,19.725-34.421,30.165    c0-12.763,0-57.238,2.321-79.668c-16.244,7.347-26.299,8.507-37.128,9.668c9.668,3.868,9.668,20.498,9.668,73.87V152.381z"
         id="path1043"
         style="fill:#dddddd;fill-opacity:0.098484851;" />
      <path
         class="st1"
         d="M357.362,194.152c-5.029-0.776-8.51-1.157-15.859-1.157c-7.733,0-13.148,0.381-18.948,1.157   c2.319-4.642,3.48-6.959,4.254-23.204c0.773-22.047,1.158-81.221-0.389-93.984c-1.546-9.283-3.479-10.829-6.96-13.148   c20.112-1.935,25.912-3.48,35.58-8.122c-2.319,10.829-2.319,16.632-2.319,33.261   C352.333,174.816,351.948,184.096,357.362,194.152z"
         id="path1044"
         style="fill:#dddddd;fill-opacity:0.098484851;" />
      <path
         class="st1"
         d="M437.032,123.762c-0.384,15.471-0.772,26.686-5.025,35.196c-5.03,11.213-13.926,14.31-20.498,14.31   c-14.697,0-17.794-12.375-17.794-24.366c0-23.593,20.887-25.14,30.169-25.14H437.032z M368.576,154.316   c0,15.47,4.642,31.33,18.567,37.903c6.571,2.707,12.76,2.707,14.694,2.707c22.819,0,30.553-16.629,35.194-27.073   c-0.384,10.829,0,17.405,0.773,26.299c4.643-0.388,8.896-0.776,16.632-0.776c3.869,0,8.123,0.388,12.375,0.776   c-2.707-4.256-4.252-6.575-5.026-16.632c-0.388-9.282-0.388-18.562-0.388-32.099V94.754c0-18.947-5.026-37.514-42.156-37.514   c-24.75,0-39.063,7.35-46.409,11.218c3.093,5.415,5.415,10.053,7.733,20.882c9.668-8.507,22.433-13.149,35.196-13.149   c20.886,0,20.886,13.925,20.886,33.262c-4.642-0.389-8.899-0.777-15.472-0.777C389.462,108.676,368.576,121.058,368.576,154.316z"
         id="path1045"
         style="fill:#dddddd;fill-opacity:0.098484851;" />
      <path
         class="st1"
         d="M580.521,169.402c0,8.508,0,17.401,3.479,24.75c-5.414-0.388-8.511-1.157-18.567-1.157   c-6.187,0-9.279,0.381-13.918,1.157c0.772-3.095,1.155-4.642,1.931-8.894c0.776-5.414,1.159-24.75,1.159-31.33v-27.074   c0-11.599,0-28.62-0.772-34.418c-0.387-4.254-1.935-15.86-16.243-15.86c-14.312,0-18.953,10.445-20.498,18.955   c-1.935,8.895-1.935,18.178-1.935,54.917c0,32.1,0,34.811,2.707,43.705c-4.252-0.388-9.665-1.157-17.014-1.157   c-6.19,0-10.06,0.381-15.084,1.157c1.935-3.868,2.707-6.19,3.479-20.112c0.39-13.532,1.545-80.832-0.772-96.687   c-1.545-9.671-3.87-11.991-6.576-14.31c20.111-1.161,26.688-4.256,32.874-7.737v26.685c3.093-7.73,9.279-25.139,34.033-25.139   c31.327,0,31.327,22.824,31.717,37.518V169.402z"
         id="path1046"
         style="fill:#dddddd;fill-opacity:0.098484851;" />
      <path
         class="st0"
         d="M359.297,20.499L338.8,40.998l-20.501-20.499L338.8,0L359.297,20.499z"
         id="path1047"
         style="fill:#dddddd;fill-opacity:0.098484851;" />
    </g>
  </g>
  <g
     id="leaf">
    <path
       style="fill:url(#linearGradient1090);fill-opacity:0.75000000;fill-rule:evenodd;stroke:#002000;stroke-width:7.5000000;stroke-linejoin:round;"
       d="M 291.17647,375.00000 C 291.17647,375.00000 397.05882,164.70588 655.88235,172.05882 C 664.70588,225.00000 751.47059,197.05882 751.47059,197.05882 C 768.62745,244.60784 810.78432,261.27451 877.94118,264.70588 C 858.82353,312.74510 902.94118,322.54902 952.94118,351.47059 C 989.21572,422.05882 1051.9607,473.52941 1145.5882,497.05882 C 1007.3530,512.25490 945.58822,530.39216 942.64706,569.11765 C 889.21569,557.84314 884.31372,583.33334 879.41176,601.47059 C 842.64706,595.58824 819.11764,610.29412 817.64706,627.94118 C 759.31373,620.09804 746.56863,625.49020 744.11765,657.35294 C 688.72549,641.66666 650.98039,634.80392 639.70588,672.05882 C 349.50980,611.27451 356.37255,569.60783 288.23530,392.64705 C 175.00001,388.23529 125.00000,394.11765 110.29412,401.47059 C 92.647059,379.41176 120.58824,357.35294 120.58824,357.35294 L 291.17647,375.00000 z "
       id="path1106"
       sodipodi:nodetypes="ccccccccccccccc"
       transform="matrix(0.318291,0.116761,-0.116761,0.318291,164.2881,826.7456)" />
    <path
       style="fill:url(#linearGradient1097);fill-rule:evenodd;stroke-width:1.0000000pt;"
       d="M 369.11765,386.76471 C 369.11765,386.76471 500.73529,208.82353 523.52941,201.47059 C 449.26471,284.55883 376.47059,388.23529 376.47059,388.23529 L 452.94118,395.58824 C 452.94118,395.58824 555.14706,219.11765 637.50000,197.05883 C 541.91176,250.73529 460.29412,397.05882 460.29412,397.05882 L 551.47059,400.00000 C 551.47059,400.00000 669.11765,235.29412 732.35294,211.76471 C 655.14706,261.02941 558.82353,401.47059 558.82353,401.47059 L 630.88235,404.41176 C 630.88235,404.41176 725.00000,294.11765 855.88235,273.52941 C 685.29412,333.82353 639.70588,407.35294 639.70588,407.35294 L 739.70588,420.58824 C 739.70588,420.58824 806.61765,341.91177 941.91176,353.67647 C 795.58828,356.61765 748.52941,422.05882 748.52941,422.05882 L 885.29412,442.64706 C 885.29412,442.64706 938.23529,402.94118 983.82353,402.94118 C 923.52945,420.58824 898.52941,442.64706 898.52941,442.64706 L 1092.6471,488.23529 L 911.76470,452.94118 L 986.76471,523.52941 L 895.58824,450.00000 L 807.35294,441.17647 C 807.35294,441.17647 858.82353,527.94118 936.76471,548.52941 C 854.41178,536.76471 802.94118,444.11764 797.79412,437.50000 L 732.35294,427.94118 C 732.35294,427.94118 801.47059,569.11765 872.05882,588.23529 C 803.67647,579.41176 720.58824,423.52941 720.58824,423.52941 L 661.76471,416.17647 C 658.82353,416.91176 737.50000,582.35295 811.02941,616.17647 C 736.76471,591.91176 650.00000,416.17647 650.00000,416.17647 L 557.35294,408.82353 C 557.35294,408.82353 657.35294,605.88235 736.76471,644.11765 C 675.00000,647.05882 548.52942,409.55883 548.52942,409.55883 L 436.76470,403.67647 C 438.23529,407.35294 589.70589,647.05883 630.88235,661.76471 C 586.76471,669.11765 427.94118,401.47059 427.94118,401.47059 L 353.67647,397.05882 C 353.67647,397.05882 427.94118,597.79412 535.29412,632.35294 C 427.20587,611.76470 360.29412,438.97059 340.44118,396.32353 C 327.94117,393.38236 272.05883,372.79412 114.70588,392.64706 C 108.82353,375.73530 119.11765,364.70588 119.11765,364.70588 L 369.11765,386.76471 z "
       id="path1107"
       sodipodi:nodetypes="ccccccccccccccccccccccccccccccccccccccccccc"
       transform="matrix(0.318291,0.116761,-0.116761,0.318291,164.2881,826.7456)" />
    <path
       style="fill:url(#linearGradient1093);fill-opacity:0.75000000;fill-rule:evenodd;stroke-width:1.0000000pt;"
       d="M 357.35294,319.85294 C 357.35294,319.85294 463.97059,195.58823 555.88235,200.73529 C 771.32353,195.58823 986.02941,421.32353 986.02941,421.32353 L 357.35294,319.85294 z "
       id="path1108"
       sodipodi:nodetypes="cccc"
       transform="matrix(0.318291,0.116761,-0.116761,0.318291,164.2881,826.7456)" />
  </g>
  <g
     id="water drop"
     transform="translate(-4.705882e-5,16.17642)">
    <path
       style="fill:url(#radialGradient854);fill-rule:evenodd;stroke:#966fe8;stroke-width:4.3595529;stroke-linejoin:round;"
       d="M 460.29412,1158.8235 C 447.79412,1202.2059 417.64706,1217.6470 417.64706,1250.0000 C 419.11765,1282.3529 480.04456,1291.6275 486.21324,1254.7794 C 490.91133,1217.9313 461.02941,1225.0000 460.29412,1158.8235 z "
       id="path1154"
       sodipodi:nodetypes="czzc"
       transform="matrix(0.359013,0.000000,0.000000,0.359013,300.6377,745.5764)" />
    <path
       style="fill:url(#linearGradient909);fill-opacity:0.75000000;fill-rule:evenodd;stroke-width:1.0000000pt;"
       d="M 459.34798,1194.0050 L 462.17272,1201.4701 C 462.17272,1201.4701 469.24805,1202.9005 472.07716,1195.5124 C 474.20822,1189.9837 467.82220,1185.6440 467.82220,1185.6440 L 459.34798,1194.0050 z "
       id="path1158"
       sodipodi:nodetypes="ccscc" />
  </g>
  <text
     xml:space="preserve"
     style="fill:#ffffff;fill-opacity:0.10000000;stroke:none;font-family:Bitstream Vera Sans;font-style:normal;font-weight:normal;font-size:72.000000;stroke-opacity:1;stroke-width:1pt;stroke-linejoin:miter;stroke-linecap:butt;font-stretch:normal;font-variant:normal;text-anchor:start;writing-mode:lr;"
     x="236.76471"
     y="1305.8824"
     id="text1168"
     sodipodi:linespacing="100%"><tspan
       x="236.76471"
       y="1305.8824"
       sodipodi:role="line"
       id="tspan1171"
       style="fill:#ffffff;fill-opacity:0.10000000;">Natures gift</tspan></text>
  <metadata
     id="metadata980">
    <rdf:RDF>
      <cc:Work
         rdf:about="">
        <dc:format>image/svg+xml</dc:format>
        <dc:type
           rdf:resource="http://purl.org/dc/dcmitype/StillImage" />
      </cc:Work>
    </rdf:RDF>
  </metadata>
  <path
     d="M 1225.1722,538.87093 C 1213.5710,446.55409 1009.1177,466.75010 1009.1177,466.75010 C 1009.1177,466.75010 1068.8605,473.85934 1100.4633,482.61440 C 858.30412,580.69187 903.25680,724.93363 903.25680,724.93363 C 903.25680,724.93363 884.40941,723.49350 859.75567,704.73752 C 1101.9150,1105.7224 1344.0747,867.72374 1358.5787,854.75113 C 1636.9927,443.67372 1325.2268,222.99090 1309.2712,214.33869 C 940.96297,61.444786 697.35219,276.35573 697.35219,276.35573 C 697.35219,276.35573 695.90063,253.27936 706.05011,220.09919 C 397.18712,621.08421 579.90130,1046.5855 579.90130,1046.5855 C 579.90130,1046.5855 594.39412,1017.7373 604.54360,1004.7532 C 891.65576,1417.2707 1187.4773,1333.6060 1187.4773,1333.6060 C 1189.2945,1336.1206 1096.1202,1336.4978 1070.0149,1310.5297 C 1070.0149,1310.5297 1181.6710,1280.2412 1242.5678,1226.8764 C 682.84772,1469.1956 579.90130,716.28142 579.90130,700.41712 C 595.84547,711.94960 617.59597,730.70558 617.59597,730.70558 C 617.59597,730.70558 542.19485,365.78097 1054.0707,237.41506 C 1054.0707,237.41506 1012.0096,283.56781 1010.5693,305.20406 C 1010.5693,305.20406 1432.5283,176.83812 1413.6810,586.46393 C 1413.6810,586.46393 1421.7388,942.35894 1131.3005,882.52496 C 804.76756,807.30667 922.11557,458.09789 1225.1722,538.87093 z "
     style="fill:#a7053f;stroke:#ffffff;stroke-width:7.5000000;stroke-linejoin:round;stroke-opacity:1.0000000;"
     id="swirl" />
  <g
     id="g4255"
     transform="matrix(0.664445,0.000000,0.000000,0.664445,-69.67513,-44.46192)">
    <path
       sodipodi:type="arc"
       style="fill:url(#radialGradient4251);fill-opacity:1.0000000;fill-rule:evenodd;stroke:none;stroke-width:1.0000000pt;stroke-linecap:butt;stroke-linejoin:miter;stroke-opacity:1.0000000;"
       id="path3629"
       sodipodi:cx="202.17392"
       sodipodi:cy="581.36646"
       sodipodi:rx="49.378883"
       sodipodi:ry="29.813665"
       d="M 251.55280 581.36646 A 49.378883 29.813665 0 1 0 152.79504,581.36646 A 49.378883 29.813665 0 1 0 251.55280 581.36646 z"
       transform="matrix(1.566038,0.000000,0.000000,0.718750,-425.6182,296.7391)" />
    <g
       id="agern"
       transform="matrix(3.606559,0.000000,0.000000,3.606559,-1057.739,-580.1856)">
      <path
         style="fill:url(#linearGradient1164);fill-opacity:0.75000000;fill-rule:evenodd;stroke:#61390a;stroke-width:0.84511566;"
         d="M 259.12816,319.55547 C 251.06365,327.95139 241.01065,338.33581 243.88293,357.00569 C 261.00619,360.31987 269.18117,352.36584 280.33890,341.42905 L 259.12816,319.55547 z "
         id="path886"
         sodipodi:nodetypes="cccc" />
      <path
         style="fill:url(#linearGradient894);fill-rule:evenodd;stroke:#3b2311;stroke-width:0.56341040;"
         d="M 255.48954,320.67251 C 266.09492,325.31236 273.71753,332.93497 279.02021,345.52885 C 282.99723,341.22042 283.66007,330.61504 277.36313,323.65527 L 285.97999,315.36982 C 286.08881,313.64252 284.77012,312.69385 282.99723,312.71848 L 275.70604,322.32960 C 268.30437,317.68975 259.57703,316.69549 255.48954,320.67251 z "
         id="path893"
         sodipodi:nodetypes="ccccccc" />
      <path
         style="fill:url(#linearGradient899);fill-opacity:0.75000000;fill-rule:evenodd;stroke-width:1.0000000pt;"
         d="M 245.48036,354.01050 C 245.48036,354.01050 243.07957,335.97207 262.22106,319.75047 C 271.88914,320.65888 272.21357,320.91842 273.57619,322.92990 C 259.92841,328.87782 252.44484,340.27621 245.48036,354.01050 z "
         id="path900"
         sodipodi:nodetypes="cccc" />
    </g>
  </g>
</svg>
