<?xml version="1.0" encoding="UTF-8" standalone="no"?>
<!-- Created with Inkscape (http://www.inkscape.org/) -->

<svg
   xmlns:dc="http://purl.org/dc/elements/1.1/"
   xmlns:cc="http://creativecommons.org/ns#"
   xmlns:rdf="http://www.w3.org/1999/02/22-rdf-syntax-ns#"
   xmlns:svg="http://www.w3.org/2000/svg"
   xmlns="http://www.w3.org/2000/svg"
   xmlns:sodipodi="http://sodipodi.sourceforge.net/DTD/sodipodi-0.dtd"
   xmlns:inkscape="http://www.inkscape.org/namespaces/inkscape"
   width="64px"
   height="64px"
   id="svg3910"
   version="1.1"
   inkscape:version="0.48.5 r10040"
   sodipodi:docname="worker.svg">
  <defs
     id="defs3912" />
  <sodipodi:namedview
     id="base"
     pagecolor="#ffffff"
     bordercolor="#666666"
     borderopacity="1.0"
     inkscape:pageopacity="0.0"
     inkscape:pageshadow="2"
     inkscape:zoom="7.7781746"
     inkscape:cx="-45.38465"
     inkscape:cy="35.427929"
     inkscape:current-layer="layer1"
     showgrid="true"
     inkscape:document-units="px"
     inkscape:grid-bbox="true"
     inkscape:window-width="1600"
     inkscape:window-height="834"
     inkscape:window-x="0"
     inkscape:window-y="27"
     inkscape:window-maximized="1" />
  <metadata
     id="metadata3915">
    <rdf:RDF>
      <cc:Work
         rdf:about="">
        <dc:format>image/svg+xml</dc:format>
        <dc:type
           rdf:resource="http://purl.org/dc/dcmitype/StillImage" />
      </cc:Work>
    </rdf:RDF>
  </metadata>
  <g
     id="layer1"
     inkscape:label="Layer 1"
     inkscape:groupmode="layer">
    <path
       style="fill:#202020;fill-opacity:1;stroke:none"
       d="M 32.4375 1.53125 C 31.204331 1.53125 29.985913 1.6356359 28.8125 1.84375 L 29 7.1875 C 28.769886 7.2485734 28.539576 7.3013045 28.3125 7.375 L 26.875 3.3125 C 18.221276 5.7369729 11.875 13.697071 11.875 23.125 C 11.875 23.271747 11.870562 23.417271 11.875 23.5625 A 0.90008998 0.90008998 0 0 1 11.96875 23.5625 C 26.956479 26.317469 36.921909 26.83218 52.8125 23.5625 A 0.91014787 0.91014787 0 0 1 53 23.53125 C 53.003903 23.396263 53 23.261737 53 23.125 C 53 13.771122 46.737039 5.8662361 38.1875 3.375 L 36.75 7.59375 C 36.546085 7.5175961 36.331544 7.4409176 36.125 7.375 L 36.375 1.90625 C 35.10357 1.660263 33.780794 1.53125 32.4375 1.53125 z M 9.0625 24.65625 A 1.8934376 1.8934376 0 0 0 8.6875 28.375 C 10.474641 28.926547 12.270571 29.44297 14.0625 29.875 C 13.908709 31.305551 13.8125 32.754731 13.8125 34.25 C 13.8125 34.471696 13.840256 34.685809 13.84375 34.90625 C 13.330275 34.384363 12.80847 34.117965 12.3125 34.21875 C 10.907554 34.504247 10.331782 37.526633 11.03125 40.96875 C 11.730718 44.410867 13.438804 46.972997 14.84375 46.6875 C 15.163375 46.622549 15.428016 46.414675 15.65625 46.09375 C 18.622655 55.355727 24.913954 61.78125 32.25 61.78125 C 39.504023 61.78125 45.773819 55.500908 48.78125 46.40625 C 48.946677 46.55197 49.111793 46.646715 49.3125 46.6875 C 50.717446 46.972997 52.425532 44.410867 53.125 40.96875 C 53.824468 37.526633 53.248696 34.504247 51.84375 34.21875 C 51.471246 34.143054 51.077956 34.274834 50.6875 34.5625 C 50.688292 34.457378 50.6875 34.355402 50.6875 34.25 C 50.6875 32.797932 50.582697 31.391281 50.4375 30 C 52.317166 29.527717 54.188184 29.006755 56.03125 28.375 A 1.9024681 1.9024681 0 0 0 54.78125 24.78125 C 54.385408 24.916935 53.988141 25.03104 53.59375 25.15625 A 0.91014787 0.91014787 0 0 1 53.53125 25.1875 A 0.91014787 0.91014787 0 0 1 53.1875 25.34375 C 53.07014 25.367898 52.960506 25.382511 52.84375 25.40625 C 37.105191 28.606296 26.80268 28.098084 12.03125 25.40625 C 11.902699 25.382824 11.785488 25.367506 11.65625 25.34375 A 0.90008998 0.90008998 0 0 1 11.25 25.1875 C 10.770962 25.056817 10.292425 24.929364 9.8125 24.78125 A 1.8934376 1.8934376 0 0 0 9.25 24.65625 A 1.8934376 1.8934376 0 0 0 9.0625 24.65625 z "
       id="path3016" />
  </g>
</svg>
